<?xml version="1.0" encoding="UTF-8" standalone="no"?>
<!-- Created with Inkscape (http://www.inkscape.org/) -->

<svg
   xmlns:dc="http://purl.org/dc/elements/1.1/"
   xmlns:cc="http://creativecommons.org/ns#"
   xmlns:rdf="http://www.w3.org/1999/02/22-rdf-syntax-ns#"
   xmlns:svg="http://www.w3.org/2000/svg"
   xmlns="http://www.w3.org/2000/svg"
   xmlns:sodipodi="http://sodipodi.sourceforge.net/DTD/sodipodi-0.dtd"
   xmlns:inkscape="http://www.inkscape.org/namespaces/inkscape"
   id="svg2985"
   version="1.1"
   inkscape:version="0.48.5 r10040"
   width="1000"
   height="655.69543"
   xml:space="preserve"
   sodipodi:docname="AA.svg"><metadata
     id="metadata2991"><rdf:RDF><cc:Work
         rdf:about=""><dc:format>image/svg+xml</dc:format><dc:type
           rdf:resource="http://purl.org/dc/dcmitype/StillImage" /><dc:title></dc:title></cc:Work></rdf:RDF></metadata><defs
     id="defs2989"><clipPath
       clipPathUnits="userSpaceOnUse"
       id="clipPath3001"><path
         d="M 0,792 612,792 612,0 0,0 0,792 z"
         id="path3003"
         inkscape:connector-curvature="0" /></clipPath><clipPath
       clipPathUnits="userSpaceOnUse"
       id="clipPath3345"><path
         d="m 580.091,11.022 21.823,0 0,22.108 -21.823,0 0,-22.108 z"
         id="path3347"
         inkscape:connector-curvature="0" /></clipPath><clipPath
       clipPathUnits="userSpaceOnUse"
       id="clipPath3357"><path
         d="M 0,792 612,792 612,0 0,0 0,792 z"
         id="path3359"
         inkscape:connector-curvature="0" /></clipPath><clipPath
       clipPathUnits="userSpaceOnUse"
       id="clipPath3425"><path
         d="m 580.091,11.022 21.823,0 0,22.108 -21.823,0 0,-22.108 z"
         id="path3427"
         inkscape:connector-curvature="0" /></clipPath><clipPath
       clipPathUnits="userSpaceOnUse"
       id="clipPath3445"><path
         d="M 0,792 612,792 612,0 0,0 0,792 z"
         id="path3447"
         inkscape:connector-curvature="0" /></clipPath><clipPath
       clipPathUnits="userSpaceOnUse"
       id="clipPath4441"><path
         d="M 1,0 612,0 612,745 1,745 1,0 z"
         id="path4443"
         inkscape:connector-curvature="0" /></clipPath><clipPath
       clipPathUnits="userSpaceOnUse"
       id="clipPath4503"><path
         d="M 1,0 612,0 612,745 1,745 1,0 z"
         id="path4505"
         inkscape:connector-curvature="0" /></clipPath><clipPath
       clipPathUnits="userSpaceOnUse"
       id="clipPath5503"><path
         inkscape:connector-curvature="0"
         d="M 0,792 612,792 612,0 0,0 0,792 z"
         id="path5505" /></clipPath><clipPath
       clipPathUnits="userSpaceOnUse"
       id="clipPath6652"><path
         inkscape:connector-curvature="0"
         d="M 0,0 792,0 792,612 0,612 0,0 z"
         id="path6654" /></clipPath><clipPath
       clipPathUnits="userSpaceOnUse"
       id="clipPath8766"><path
         inkscape:connector-curvature="0"
         d="m 456.751,149.924 -133.402,0 0,-46.061 133.402,0 0,46.061 z"
         id="path8768" /></clipPath><clipPath
       clipPathUnits="userSpaceOnUse"
       id="clipPath8694"><path
         inkscape:connector-curvature="0"
         d="m 456.751,149.924 -133.402,0 0,-46.061 133.402,0 0,46.061 z"
         id="path8696" /></clipPath><clipPath
       clipPathUnits="userSpaceOnUse"
       id="clipPath8670"><path
         inkscape:connector-curvature="0"
         d="m 456.751,149.924 -133.402,0 0,-46.061 133.402,0 0,46.061 z"
         id="path8672" /></clipPath><clipPath
       clipPathUnits="userSpaceOnUse"
       id="clipPath224805"><path
         inkscape:connector-curvature="0"
         d="m 41.76,1065.11 187.518,0 0,122.89 -187.518,0 0,-122.89 z"
         id="path224807" /></clipPath></defs><sodipodi:namedview
     pagecolor="#ffffff"
     bordercolor="#666666"
     borderopacity="1"
     objecttolerance="10"
     gridtolerance="10"
     guidetolerance="10"
     inkscape:pageopacity="0"
     inkscape:pageshadow="2"
     inkscape:window-width="1065"
     inkscape:window-height="1016"
     id="namedview2987"
     showgrid="false"
     fit-margin-left="0.5"
     fit-margin-bottom="0.5"
     fit-margin-top="0.5"
     fit-margin-right="0.5"
     inkscape:zoom="0.38132102"
     inkscape:cx="457.97887"
     inkscape:cy="-275.39263"
     inkscape:window-x="854"
     inkscape:window-y="1"
     inkscape:window-maximized="0"
     inkscape:current-layer="g2993"><inkscape:grid
       type="xygrid"
       id="grid5415"
       empspacing="5"
       visible="true"
       enabled="true"
       snapvisiblegridlinesonly="true"
       originx="-772.3524px"
       originy="-911.24896px" /></sodipodi:namedview><g
     id="g2993"
     inkscape:groupmode="layer"
     inkscape:label="WCCRRFPWeb"
     transform="matrix(1.25,0,0,-1.25,-1223.1753,2466.1583)"><g
       id="g224801"
       transform="matrix(4.2619931,0,0,4.2619931,800.95941,-3090.7212)"><g
         id="g224803"
         clip-path="url(#clipPath224805)"><g
           id="g224809"
           transform="translate(65.8319,1188)"><path
             d="m 0,0 139.375,0 c 13.295,0 24.071,-10.777 24.071,-24.071 l 0,-74.747 c 0,-13.296 -10.776,-24.072 -24.071,-24.072 L 0,-122.89 c -13.295,0 -24.072,10.776 -24.072,24.072 l 0,74.747 C -24.072,-10.777 -13.295,0 0,0"
             style="fill:#df1837;fill-opacity:1;fill-rule:nonzero;stroke:none"
             id="path224811"
             inkscape:connector-curvature="0" /></g><g
           id="g224813"
           transform="translate(214.5894,1105.5471)"><path
             d="m 0,0 c 2.848,0 5.282,2.212 5.282,5.238 0,2.999 -2.434,5.211 -5.282,5.211 -2.875,0 -5.307,-2.212 -5.307,-5.211 C -5.307,2.212 -2.875,0 0,0 m -4.256,5.238 c 0,2.474 1.864,4.34 4.256,4.34 2.365,0 4.23,-1.866 4.23,-4.34 C 4.23,2.724 2.365,0.87 0,0.87 c -2.392,0 -4.256,1.854 -4.256,4.368 m 3.151,-0.415 1.051,0 1.588,-2.611 1.023,0 -1.713,2.653 c 0.885,0.111 1.562,0.58 1.562,1.658 0,1.189 -0.705,1.714 -2.13,1.714 l -2.295,0 0,-6.025 0.914,0 0,2.611 z m 0,0.773 0,1.868 1.243,0 c 0.636,0 1.314,-0.138 1.314,-0.885 0,-0.926 -0.692,-0.983 -1.465,-0.983 l -1.092,0 z"
             style="fill:#ffffff;fill-opacity:1;fill-rule:nonzero;stroke:none"
             id="path224815"
             inkscape:connector-curvature="0" /></g><g
           id="g224817"
           transform="translate(57.2456,1146.9224)"><path
             d="m 0,0 c -1.067,0 -1.034,-1.126 -1.034,-1.126 l 0.001,-14.935 c 0,-1.265 1.755,-1.265 1.755,0 0.032,9.391 3.556,14.578 10.088,14.024 0.951,0 1.386,-0.285 1.426,-1.275 l 0,-30.492 c 0,-5.504 -4.435,-5.056 -4.435,-5.056 l -1.082,0 c -1.65,0 -1.689,-1.683 0,-1.683 l 22.689,0 c 1.689,0 1.651,1.683 0,1.683 l -1.082,0 c 0,0 -4.434,-0.448 -4.434,5.056 l 0,30.492 c 0.04,0.99 0.475,1.275 1.426,1.275 6.532,0.554 10.056,-4.633 10.087,-14.024 0,-1.265 1.756,-1.265 1.756,0 l 10e-4,14.935 c 0,0 0.033,1.126 -1.035,1.126 L 0,0 z"
             style="fill:#ffffff;fill-opacity:1;fill-rule:nonzero;stroke:none"
             id="path224819"
             inkscape:connector-curvature="0" /></g><g
           id="g224821"
           transform="translate(183.8182,1132.3285)"><path
             d="m 0,0 c 0,8.542 3.088,13.516 7.755,13.516 4.915,0 8.082,-3.152 8.082,-13.516 l 0,-8.704 C 15.837,-19.71 13.62,-24.839 7.755,-24.839 1.98,-24.839 0,-19.789 0,-8.704 L 0,0 z m 7.887,15.452 c -7.118,0 -20.373,-6.936 -20.373,-20.628 0,-14.034 12.7,-21.472 20.373,-21.472 7.213,0 20.437,7.438 20.437,21.472 0,15.001 -13.462,20.628 -20.437,20.628"
             style="fill:#ffffff;fill-opacity:1;fill-rule:nonzero;stroke:none"
             id="path224823"
             inkscape:connector-curvature="0" /></g><g
           id="g224825"
           transform="translate(149.4271,1144.9233)"><path
             d="m 0,0 3.14,0 c 4.699,0 4.97,-3.641 5.018,-6.405 l 0,-4.077 c 0,-4.222 -2.385,-5.807 -6.054,-5.755 l -2.291,0 c 0,0 -0.622,-0.092 -0.622,0.58 l 0,14.867 c 0,0 -0.14,0.79 0.809,0.79 m 3.691,-38.608 c 1.329,0 1.29,1.81 0,1.81 l -1.101,0 c -2.058,0 -3.525,0.455 -3.525,4.993 l 0,12.606 c 0,0 -0.062,0.844 0.987,0.844 l 2.569,0 c 3.021,0 4.261,-1.542 4.261,-4.353 0,-1.236 -0.086,-6.863 -0.081,-7.751 -0.078,-7.072 4.634,-8.695 9.305,-8.815 3.127,-0.077 5.148,0.381 7.365,1.807 1.406,0.903 0.435,2.335 -0.991,1.623 -1.067,-0.816 -2.057,-0.775 -2.691,-0.26 -1.181,0.958 -0.752,3.703 -0.752,8.71 0,6.018 -3.871,8.817 -10.958,9.61 l 0.012,0.567 c 4.434,0.911 11.104,3.164 11.183,9.46 0.089,7.055 -8.222,9.82 -14.254,9.82 l -21.821,0 c -1.538,0 -1.578,-1.936 10e-4,-1.936 l 0.678,0 c 0,0 3.773,0.223 3.773,-3.895 l 0,-28.039 c 0,-5.327 -4.011,-4.991 -4.011,-4.991 l -0.694,0 c -1.404,0 -1.444,-1.81 0,-1.81 l 20.745,0 z"
             style="fill:#ffffff;fill-opacity:1;fill-rule:nonzero;stroke:none"
             id="path224827"
             inkscape:connector-curvature="0" /></g><g
           id="g224829"
           transform="translate(104.9011,1132.3285)"><path
             d="m 0,0 c 0,8.542 3.088,13.516 7.755,13.516 4.915,0 8.082,-3.152 8.082,-13.516 l 0,-8.704 C 15.837,-19.71 13.62,-24.839 7.755,-24.839 1.98,-24.839 0,-19.789 0,-8.704 L 0,0 z m 7.888,15.452 c -7.12,0 -20.374,-6.936 -20.374,-20.628 0,-14.034 12.7,-21.472 20.374,-21.472 7.212,0 20.436,7.438 20.436,21.472 0,15.001 -13.461,20.628 -20.436,20.628"
             style="fill:#ffffff;fill-opacity:1;fill-rule:nonzero;stroke:none"
             id="path224831"
             inkscape:connector-curvature="0" /></g></g></g></g></svg>